<svg width="4" height="3" viewBox="0 0 4 3" fill="none" xmlns="http://www.w3.org/2000/svg">
<path opacity="0.6" d="M2.00863 2.848C1.79529 2.848 1.59263 2.79467 1.40063 2.688C1.21929 2.58133 1.07529 2.43733 0.968625 2.256C0.861958 2.07467 0.808625 1.86133 0.808625 1.616C0.808625 1.392 0.861958 1.18933 0.968625 1.008C1.07529 0.826666 1.21929 0.682666 1.40063 0.576C1.59263 0.469333 1.79529 0.416 2.00863 0.416C2.22196 0.416 2.41929 0.469333 2.60063 0.576C2.78196 0.682666 2.92596 0.826666 3.03263 1.008C3.14996 1.18933 3.20863 1.392 3.20863 1.616C3.20863 1.86133 3.14996 2.07467 3.03263 2.256C2.92596 2.43733 2.78196 2.58133 2.60063 2.688C2.41929 2.79467 2.22196 2.848 2.00863 2.848Z" fill="white"/>
</svg>