<svg width="80" height="81" viewBox="0 0 80 81" fill="none" xmlns="http://www.w3.org/2000/svg">
<path d="M36.5595 7.21829C43.8688 7.21829 50.8787 10.0973 56.0471 15.2219C61.2155 20.3465 64.1191 27.2969 64.1191 34.5442C64.1191 41.7915 61.2155 48.7419 56.0471 53.8665C50.8787 58.9911 43.8688 61.8701 36.5595 61.8701L36.5595 7.21829Z" fill="#0F6FFF"/>
<g filter="url(#filter0_biiii_269_2430)">
<path d="M0.000339832 35.1016C0.000340758 45.6028 4.17797 55.6738 11.6142 63.0993C19.0504 70.5247 29.1361 74.6963 39.6525 74.6963C50.1689 74.6963 60.2546 70.5247 67.6908 63.0993C75.1271 55.6738 79.3047 45.6028 79.3047 35.1016L0.000339832 35.1016Z" fill="url(#paint0_linear_269_2430)"/>
</g>
<path d="M36.5591 16.9023C41.278 16.9023 45.8036 18.7609 49.1403 22.0693C52.477 25.3778 54.3516 29.865 54.3516 34.5438C54.3516 39.2226 52.477 43.7098 49.1403 47.0182C45.8036 50.3266 41.278 52.1853 36.5591 52.1853L36.5591 16.9023Z" fill="url(#paint1_linear_269_2430)"/>
<defs>
<filter id="filter0_biiii_269_2430" x="-14.6087" y="20.4929" width="108.522" height="68.8121" filterUnits="userSpaceOnUse" color-interpolation-filters="sRGB">
<feFlood flood-opacity="0" result="BackgroundImageFix"/>
<feGaussianBlur in="BackgroundImageFix" stdDeviation="7.30435"/>
<feComposite in2="SourceAlpha" operator="in" result="effect1_backgroundBlur_269_2430"/>
<feBlend mode="normal" in="SourceGraphic" in2="effect1_backgroundBlur_269_2430" result="shape"/>
<feColorMatrix in="SourceAlpha" type="matrix" values="0 0 0 0 0 0 0 0 0 0 0 0 0 0 0 0 0 0 127 0" result="hardAlpha"/>
<feOffset dx="6.95652" dy="6.95652"/>
<feGaussianBlur stdDeviation="8"/>
<feComposite in2="hardAlpha" operator="arithmetic" k2="-1" k3="1"/>
<feColorMatrix type="matrix" values="0 0 0 0 0.101961 0 0 0 0 0.745098 0 0 0 0 1 0 0 0 0.18 0"/>
<feBlend mode="normal" in2="shape" result="effect2_innerShadow_269_2430"/>
<feColorMatrix in="SourceAlpha" type="matrix" values="0 0 0 0 0 0 0 0 0 0 0 0 0 0 0 0 0 0 127 0" result="hardAlpha"/>
<feMorphology radius="1.3913" operator="erode" in="SourceAlpha" result="effect3_innerShadow_269_2430"/>
<feOffset dy="1.3913"/>
<feGaussianBlur stdDeviation="2.08696"/>
<feComposite in2="hardAlpha" operator="arithmetic" k2="-1" k3="1"/>
<feColorMatrix type="matrix" values="0 0 0 0 1 0 0 0 0 1 0 0 0 0 1 0 0 0 0.05 0"/>
<feBlend mode="normal" in2="effect2_innerShadow_269_2430" result="effect3_innerShadow_269_2430"/>
<feColorMatrix in="SourceAlpha" type="matrix" values="0 0 0 0 0 0 0 0 0 0 0 0 0 0 0 0 0 0 127 0" result="hardAlpha"/>
<feOffset dy="0.695652"/>
<feComposite in2="hardAlpha" operator="arithmetic" k2="-1" k3="1"/>
<feColorMatrix type="matrix" values="0 0 0 0 1 0 0 0 0 1 0 0 0 0 1 0 0 0 0.05 0"/>
<feBlend mode="normal" in2="effect3_innerShadow_269_2430" result="effect4_innerShadow_269_2430"/>
<feColorMatrix in="SourceAlpha" type="matrix" values="0 0 0 0 0 0 0 0 0 0 0 0 0 0 0 0 0 0 127 0" result="hardAlpha"/>
<feOffset dy="-6.95652"/>
<feGaussianBlur stdDeviation="3.47826"/>
<feComposite in2="hardAlpha" operator="arithmetic" k2="-1" k3="1"/>
<feColorMatrix type="matrix" values="0 0 0 0 0.101961 0 0 0 0 0.745098 0 0 0 0 1 0 0 0 0.4 0"/>
<feBlend mode="overlay" in2="effect4_innerShadow_269_2430" result="effect5_innerShadow_269_2430"/>
</filter>
<linearGradient id="paint0_linear_269_2430" x1="39.6525" y1="-3.67953" x2="54.0208" y2="72.601" gradientUnits="userSpaceOnUse">
<stop stop-color="#16A8FE" stop-opacity="0.01"/>
<stop offset="1" stop-color="#16A8FE" stop-opacity="0.12"/>
</linearGradient>
<linearGradient id="paint1_linear_269_2430" x1="61.6592" y1="34.5438" x2="36.5591" y2="34.5438" gradientUnits="userSpaceOnUse">
<stop stop-color="white"/>
<stop offset="1" stop-color="white" stop-opacity="0"/>
</linearGradient>
</defs>
</svg>
