<svg width="16" height="16" viewBox="0 0 16 16" fill="none" xmlns="http://www.w3.org/2000/svg">
<path d="M7.28028 1.18904C7.61759 0.324178 8.84879 0.345671 9.1557 1.22178L10.5547 5.21519C10.6511 5.49064 10.8632 5.71018 11.1351 5.81623L15.0772 7.3537C15.9421 7.691 15.9206 8.9222 15.0445 9.22912L11.0511 10.6281C10.7756 10.7246 10.5561 10.9366 10.45 11.2085L8.91257 15.1506C8.57527 16.0155 7.34407 15.994 7.03715 15.1179L5.6382 11.1245C5.54171 10.8491 5.32969 10.6295 5.05778 10.5235L1.11562 8.98599C0.250761 8.64868 0.272254 7.41748 1.14836 7.11057L5.14178 5.71162C5.41722 5.61512 5.63677 5.40311 5.74281 5.1312L7.28028 1.18904Z" fill="#0F6FFF"/>
</svg>
